# xmcd
#
# Track frame offsets: 
#        150
#        18542
#        34310
#        57532
#        80000
#        93367
#        115795
#        137572
#        151835
#        167227
#        186280
#        215110
#
# Disc length: 3024 seconds
#
# Revision: 1
# Processed by: cddbd v1.5.2PL0 Copyright (c) Steve Scherf et al.
# Submitted via: ExactAudioCopy v1.0b3
#
DISCID=a80bce0c
DTITLE=Daddy Mack Blues Band - Pay The Piper
DYEAR=2012
DGENRE=Blues
TTITLE0=Showtime
TTITLE1=Best In Town
TTITLE2=Como
TTITLE3=Pay The Piper
TTITLE4=Workin' Man
TTITLE5=Let's Get Together
TTITLE6=Sugar Daddy
TTITLE7=Black and Blue
TTITLE8=Trickle Down Blues
TTITLE9=Woman Do Right
TTITLE10=Of Blues I Sing
TTITLE11=If We Never Meet Again
EXTD=
EXTT0=
EXTT1=
EXTT2=
EXTT3=
EXTT4=
EXTT5=
EXTT6=
EXTT7=
EXTT8=
EXTT9=
EXTT10=
EXTT11=
PLAYORDER=
